<?xml version="1.0" standalone="no"?>
<!DOCTYPE svg PUBLIC "-//W3C//DTD SVG 20010904//EN"
 "http://www.w3.org/TR/2001/REC-SVG-20010904/DTD/svg10.dtd">
<svg version="1.0" xmlns="http://www.w3.org/2000/svg"
 width="250.000000pt" height="250.000000pt" viewBox="0 0 250.000000 250.000000"
 preserveAspectRatio="xMidYMid meet">
<metadata>
Created by potrace 1.11, written by Peter Selinger 2001-2013
</metadata>
<g transform="translate(0.000000,250.000000) scale(0.100000,-0.100000)"
fill="#000000" stroke="none">
<path d="M1018 2455 c-38 -21 -49 -66 -47 -191 2 -143 25 -183 102 -184 31 0
45 7 68 31 29 31 29 31 29 164 0 133 0 133 -29 164 -33 35 -77 41 -123 16z"/>
<path d="M408 2204 c-34 -18 -58 -57 -58 -95 0 -26 16 -47 98 -130 89 -90 101
-99 135 -99 26 0 45 8 67 28 36 32 44 63 26 106 -15 35 -176 196 -197 197 -8
0 -21 2 -30 4 -8 1 -27 -3 -41 -11z"/>
<path d="M1672 2212 c-12 -2 -65 -45 -116 -96 -103 -103 -117 -133 -85 -186
21 -34 48 -50 84 -50 37 0 51 9 129 86 97 95 117 126 105 166 -16 59 -60 89
-117 80z"/>
<path d="M983 1874 c-144 -37 -248 -137 -288 -277 -29 -100 -8 -234 49 -317
l23 -34 -35 -100 c-20 -56 -36 -102 -37 -104 -1 -1 -18 13 -38 33 -27 27 -43
35 -72 35 -32 0 -47 -10 -133 -94 -71 -68 -106 -96 -132 -101 -113 -24 -230
-119 -281 -230 -71 -151 -34 -354 86 -464 116 -107 272 -143 416 -96 30 10 57
23 61 28 3 6 37 11 75 12 72 1 98 9 87 27 -4 6 -1 14 6 18 18 11 3 30 -25 30
-23 0 -23 1 13 57 20 31 37 60 37 64 0 22 18 15 72 -28 33 -27 74 -59 91 -72
35 -26 43 -48 13 -31 -25 13 -27 13 -44 -5 -9 -8 -13 -23 -10 -34 6 -25 39
-33 57 -15 9 8 16 10 18 4 4 -14 58 -23 58 -10 0 12 50 -18 92 -56 72 -65 126
-97 152 -90 13 3 141 9 283 12 142 3 319 7 393 9 74 2 187 4 251 4 80 1 121 5
134 15 16 12 19 30 21 152 3 145 4 209 3 234 -1 8 0 60 1 115 l2 100 46 3 c53
3 76 24 67 60 -3 12 -26 66 -51 120 -25 53 -53 113 -61 132 -9 19 -43 91 -75
159 -32 68 -58 125 -58 127 0 2 -24 54 -53 116 -30 62 -73 155 -97 206 -35 74
-48 92 -65 92 -12 0 -31 11 -43 25 -19 22 -30 25 -87 25 -54 0 -67 3 -71 18
-16 51 -37 62 -85 42 -20 -9 -29 -19 -29 -36 0 -21 -5 -24 -38 -24 -34 0 -39
3 -51 35 -10 29 -17 35 -40 35 -31 0 -61 -27 -61 -54 0 -14 -8 -17 -47 -14
-44 3 -48 5 -51 30 -4 31 -28 43 -71 33 -22 -5 -39 1 -72 23 -89 60 -209 81
-306 56z m-238 -937 l35 11 1 -46 c2 -144 1 -193 -5 -199 -3 -4 -6 1 -6 10 0
20 -92 120 -136 148 l-36 22 38 38 c36 36 39 38 56 22 15 -13 24 -14 53 -6z
m-28 -739 c-3 -8 -6 -5 -6 6 -1 11 2 17 5 13 3 -3 4 -12 1 -19z"/>
<path d="M148 1581 c-29 -14 -58 -57 -58 -86 0 -26 29 -74 53 -86 26 -15 228
-19 275 -7 34 9 60 39 67 78 6 32 -21 84 -51 100 -35 19 -247 20 -286 1z"/>
<path d="M817 264 c-3 -4 -3 -12 1 -18 4 -6 7 -27 7 -46 0 -34 1 -34 42 -36
42 -1 42 -1 41 35 0 20 2 43 4 51 2 11 -8 16 -42 18 -25 2 -49 0 -53 -4z"/>
</g>
</svg>
